<?xml version="1.0" encoding="UTF-8"?>
<svg width="52" height="18" version="1.1" viewBox="0 0 52 18" xmlns="http://www.w3.org/2000/svg">
 <g id="layer1" transform="translate(-9.883 -40.142)">
  <rect x="16.657" y="51.407" width="1.7009" height="6.3901"/>
  <rect x="20.198" y="50.421" width="1.7009" height="7.3704"/>
  <rect x="23.74" y="49.559" width="1.7009" height="8.2278"/>
  <rect x="27.281" y="48.545" width="1.7009" height="9.2361"/>
  <rect x="30.823" y="47.615" width="1.7009" height="10.161"/>
  <rect x="34.364" y="46.816" width="1.7009" height="10.957"/>
  <rect x="37.905" y="45.759" width="1.7009" height="12.008"/>
  <rect x="41.447" y="44.854" width="1.7009" height="12.908"/>
  <rect x="44.988" y="44.009" width="1.7009" height="13.749"/>
  <rect x="48.529" y="43.014" width="1.7009" height="14.74"/>
  <rect x="52.071" y="42.07" width="1.7009" height="15.68"/>
  <rect x="55.612" y="41.037" width="1.7009" height="16.71"/>
  <rect x="59.153" y="40.262" width="1.7009" height="17.479"/>
  <rect x="13.116" y="52.365" width="1.7009" height="5.4412"/>
  <rect x="9.9408" y="53.802" width="1.7009" height="4.0035"/>
 </g>
</svg>
